<svg xmlns="http://www.w3.org/2000/svg" viewBox="36 56 748 412" width="748" height="412"><rect x="36" y="56" width="748" height="412" fill="#ffffff"/><defs><marker id="arrow" viewBox="0 0 10 10" refX="9" refY="5" markerWidth="6" markerHeight="6" orient="auto-start-reverse"><path d="M 0 0 L 10 5 L 0 10" fill="none" stroke="#232F3E" stroke-width="1.5"/></marker></defs><line x1="140" y1="120" x2="390" y2="120" stroke="#232F3E" stroke-width="1.5" marker-end="url(#arrow)"/><line x1="390" y1="120" x2="390" y2="250" stroke="#232F3E" stroke-width="1.5" marker-end="url(#arrow)"/><line x1="390" y1="120" x2="660" y2="120" stroke="#232F3E" stroke-width="1.5" marker-end="url(#arrow)"/><line x1="660" y1="120" x2="660" y2="250" stroke="#232F3E" stroke-width="1.5" marker-end="url(#arrow)"/><line x1="660" y1="120" x2="140" y2="120" stroke="#232F3E" stroke-width="1.5" marker-end="url(#arrow)"/><line x1="660" y1="120" x2="660" y2="380" stroke="#232F3E" stroke-width="1.5" marker-end="url(#arrow)"/><rect x="60" y="80" width="160" height="80" fill="#dae8fc" stroke="#999" stroke-width="1"/><text x="140" y="174" font-family="sans-serif" font-size="12" fill="#232F3E" text-anchor="middle">&lt;b&gt;Discord (UI)&lt;/b&gt;&lt;br&gt;@제로가재 &amp;amp; 승인 게이트</text><rect x="300" y="80" width="180" height="80" fill="#d5e8d4" stroke="#999" stroke-width="1"/><text x="390" y="174" font-family="sans-serif" font-size="12" fill="#232F3E" text-anchor="middle">&lt;b&gt;Sovereign Control Tower&lt;/b&gt;&lt;br&gt;(glue/server.ts)</text><rect x="350" y="210" width="80" height="80" fill="#f5f5f5" stroke="#999" stroke-width="1"/><text x="390" y="304" font-family="sans-serif" font-size="12" fill="#333333" text-anchor="middle">&lt;b&gt;SQLite DB&lt;/b&gt;</text><rect x="560" y="80" width="200" height="80" fill="#fff2cc" stroke="#999" stroke-width="1"/><text x="660" y="174" font-family="sans-serif" font-size="12" fill="#232F3E" text-anchor="middle">&lt;b&gt;Stage Workers&lt;/b&gt;&lt;br&gt;(researcher, reviewer, pr-creator, merger)</text><rect x="560" y="210" width="200" height="80" fill="#ffe6cc" stroke="#999" stroke-width="1"/><text x="660" y="304" font-family="sans-serif" font-size="12" fill="#232F3E" text-anchor="middle">&lt;b&gt;AI Agents&lt;/b&gt;&lt;br&gt;ZeroClaw (jeo-code)&lt;br&gt;NullClaw (gajae-code)</text><rect x="560" y="340" width="200" height="80" fill="#f8cecc" stroke="#999" stroke-width="1"/><text x="660" y="434" font-family="sans-serif" font-size="12" fill="#232F3E" text-anchor="middle">&lt;b&gt;GitHub Target Repo&lt;/b&gt;</text></svg>